<?xml version="1.0" standalone="no"?>
<!DOCTYPE svg PUBLIC "-//W3C//DTD SVG 20010904//EN"
 "http://www.w3.org/TR/2001/REC-SVG-20010904/DTD/svg10.dtd">
<svg version="1.0" xmlns="http://www.w3.org/2000/svg"
 width="736.000000pt" height="601.000000pt" viewBox="0 0 736.000000 601.000000"
 preserveAspectRatio="xMidYMid meet">

<g transform="translate(0.000000,601.000000) scale(0.100000,-0.100000)"
fill="#000000" stroke="none">
<path d="M3320 5903 c-76 -13 -183 -49 -253 -85 -166 -87 -261 -219 -331 -461
-18 -66 -38 -123 -42 -127 -5 -5 -70 7 -144 26 -245 64 -405 57 -603 -24 -127
-52 -194 -93 -265 -163 -77 -74 -129 -155 -171 -264 -34 -85 -35 -96 -36 -215
0 -105 4 -136 23 -192 26 -74 104 -192 153 -231 l32 -25 -86 -12 c-252 -36
-518 -255 -657 -541 -57 -118 -74 -206 -67 -348 8 -164 45 -270 149 -431 79
-122 136 -170 281 -240 155 -75 216 -90 355 -90 l110 0 0 -74 c1 -132 76 -310
172 -407 100 -101 225 -145 476 -169 211 -20 374 29 507 150 l56 51 24 -48
c143 -280 454 -423 894 -410 259 7 589 53 728 100 233 80 373 207 439 400 5
16 19 7 86 -55 128 -118 222 -166 370 -189 125 -19 317 18 461 91 236 117 369
299 369 502 l0 58 33 0 c17 0 66 -7 107 -16 176 -37 344 20 437 150 20 28 58
74 83 101 106 112 159 201 205 345 39 122 45 257 16 370 -58 232 -217 447
-434 590 -98 65 -176 95 -292 113 l-76 12 47 73 c148 232 134 470 -44 742 -80
123 -190 232 -274 273 -102 49 -170 62 -318 61 -119 0 -150 -4 -260 -33 -69
-18 -131 -34 -138 -34 -9 -1 -28 41 -53 118 -22 66 -57 157 -79 202 -117 241
-373 375 -691 360 -210 -9 -390 -78 -505 -193 -35 -35 -64 -60 -64 -56 0 4
-23 31 -51 60 -81 80 -241 154 -393 181 -57 11 -234 13 -286 4z m344 -160 c73
-16 173 -56 242 -95 58 -33 92 -77 96 -124 l3 -39 50 0 c39 0 52 4 60 20 7 13
20 20 40 20 26 0 33 6 55 52 22 45 32 55 80 76 61 28 250 72 351 82 276 27
437 -147 527 -568 15 -71 32 -128 37 -127 6 1 9 8 7 16 -2 8 2 14 8 14 25 0
-8 254 -50 380 -26 77 -27 83 -8 60 36 -42 77 -145 89 -220 11 -73 8 -277 -4
-297 -4 -6 -3 -15 3 -18 6 -4 2 -14 -11 -24 -12 -10 -18 -20 -13 -24 5 -3 41
16 79 42 82 55 142 75 280 96 183 27 290 17 403 -37 156 -77 281 -287 329
-556 22 -122 7 -264 -33 -325 -35 -53 -27 -94 19 -99 l32 -4 -27 -13 c-39 -20
-37 -45 2 -36 53 12 312 -138 417 -241 137 -136 268 -329 309 -458 44 -136 23
-262 -67 -413 -93 -155 -234 -246 -416 -269 -32 -3 -65 -8 -73 -10 -8 -1 -32
-3 -52 -3 -22 -1 -38 -6 -38 -13 0 -28 268 10 343 49 16 8 31 12 34 10 8 -8
-99 -56 -162 -72 -123 -31 -212 -19 -311 45 -25 16 -37 18 -58 10 -21 -8 -26
-16 -26 -42 0 -53 -38 -177 -78 -252 -62 -118 -188 -234 -337 -309 -123 -62
-256 -73 -406 -36 -141 36 -161 51 -244 176 -26 40 -56 75 -66 78 -10 3 -32
-1 -49 -10 -31 -16 -31 -16 -77 25 -26 22 -53 39 -62 38 -8 -2 -23 -32 -36
-73 -29 -95 -81 -174 -184 -275 -95 -95 -182 -160 -294 -220 -69 -38 -81 -41
-203 -51 -107 -9 -156 -9 -284 5 -182 19 -272 41 -395 101 -198 95 -312 215
-359 377 -14 50 -21 60 -52 73 -19 8 -41 12 -48 9 -12 -5 -12 1 0 36 18 52 9
92 -19 88 -30 -4 -59 -69 -65 -145 -4 -59 -10 -71 -46 -116 -64 -79 -168 -153
-242 -173 -142 -38 -368 3 -525 96 -151 89 -268 280 -269 437 0 63 14 90 62
114 102 52 208 160 208 213 0 8 -9 20 -20 26 -41 22 -115 -36 -191 -147 -18
-26 -33 -49 -34 -51 -1 -1 -10 1 -20 4 -17 7 -17 8 -1 20 29 21 3 24 -80 9
-143 -26 -326 -15 -459 26 -53 16 -72 29 -114 74 -27 31 -69 93 -92 138 l-41
82 5 160 c4 117 10 181 26 240 30 115 99 246 179 340 123 144 341 290 472 316
33 6 63 16 66 20 3 5 22 9 43 9 42 0 72 22 49 37 -7 4 -28 13 -47 18 -67 20
-183 199 -211 327 -19 85 -8 235 25 338 25 79 32 90 96 152 84 81 221 153 369
193 145 39 344 34 432 -11 14 -8 56 -37 93 -65 67 -51 95 -59 59 -17 -10 13
-3 8 17 -9 38 -36 83 -44 93 -17 3 9 6 57 6 108 0 97 14 145 77 269 29 58 38
56 23 -4 -14 -60 -42 -301 -35 -307 13 -13 20 18 37 155 29 245 61 317 183
416 76 61 168 107 237 117 68 11 194 4 282 -17z m821 -8 c-75 -17 -92 -17 -40
0 22 8 54 13 70 13 19 0 7 -5 -30 -13z m557 -118 c68 -67 106 -150 134 -287
29 -142 32 -226 3 -100 -41 183 -101 309 -194 409 -52 56 -56 62 -26 45 19
-10 56 -41 83 -67z m-1988 -9 c-4 -7 -28 -42 -53 -78 -25 -35 -65 -101 -89
-145 -35 -65 -42 -73 -38 -45 10 59 65 157 123 220 53 58 72 74 57 48z m1136
-27 c0 -13 -31 -43 -38 -37 -3 3 3 15 13 26 20 22 25 24 25 11z m-2402 -479
c-48 -55 -73 -90 -145 -212 -70 -117 -94 -193 -100 -315 -6 -115 9 -192 57
-288 35 -70 13 -57 -30 18 -72 126 -94 258 -66 391 22 100 92 243 153 313 40
46 155 141 170 141 3 0 -15 -22 -39 -48z m4167 23 c129 -33 175 -57 241 -123
114 -115 175 -231 210 -401 26 -133 7 -281 -47 -358 -12 -18 -14 -3 -15 116 0
107 -5 152 -21 213 -73 260 -201 434 -370 498 -81 31 -243 38 -383 16 -56 -9
-105 -15 -107 -13 -6 7 119 39 202 52 112 18 220 18 290 0z m366 -186 c79 -79
140 -249 138 -386 -1 -96 -15 -108 -22 -18 -5 84 -43 218 -82 295 -13 25 -44
73 -69 108 -52 70 -34 70 35 1z m195 -947 c177 -71 284 -145 370 -254 25 -32
44 -58 42 -58 -2 0 -31 25 -63 56 -91 85 -183 141 -334 204 -75 31 -147 63
-161 70 -23 12 -24 14 -5 21 11 4 23 8 26 8 3 1 60 -21 125 -47z m-4960 -25
c-202 -130 -360 -308 -427 -483 -32 -83 -59 -213 -59 -285 0 -26 -4 -51 -10
-54 -27 -16 -2 206 37 330 68 217 187 361 387 467 67 35 114 51 72 25z m5205
-178 c82 -60 201 -185 228 -238 19 -37 61 -173 61 -196 0 -5 -18 22 -38 61
-21 39 -65 109 -98 154 -58 83 -216 251 -264 284 -24 15 -23 16 10 0 19 -9 65
-38 101 -65z m-4651 -1009 c0 -11 -18 -40 -41 -65 -41 -44 -146 -121 -155
-112 -7 7 80 119 124 160 47 41 72 47 72 17z m-650 -151 c83 -12 327 -8 365 6
14 5 11 -1 -10 -18 -86 -74 -271 -75 -415 -2 -45 23 -70 45 -36 32 8 -3 51
-11 96 -18z m5404 -50 c-48 -50 -147 -93 -223 -96 l-66 -3 52 15 c71 20 163
58 215 89 55 33 58 33 22 -5z m-621 -107 c-13 -210 -124 -374 -315 -466 -133
-64 -200 -80 -343 -81 -92 0 -132 4 -173 19 -29 10 -52 20 -50 22 2 2 42 -4
88 -12 189 -34 343 16 543 175 111 88 194 226 228 376 16 71 27 53 22 -33z
m-3238 -208 c-9 -24 -21 -46 -26 -49 -12 -8 0 51 19 95 22 52 29 10 7 -46z
m1942 -36 l41 -43 -20 -59 c-54 -162 -232 -311 -472 -392 -98 -34 -110 -30
-41 13 100 61 166 116 260 215 93 97 145 178 165 261 7 26 15 47 19 47 4 0 25
-19 48 -42z m-1836 -284 c61 -100 166 -184 304 -242 95 -40 201 -66 373 -92
l127 -20 -116 5 c-205 9 -353 44 -501 121 -93 49 -210 163 -263 257 l-37 68
22 24 23 25 22 -54 c12 -29 32 -71 46 -92z m-1119 63 c25 -21 81 -56 125 -79
83 -44 56 -44 -37 0 -51 24 -170 124 -170 144 0 4 8 0 18 -9 9 -10 38 -35 64
-56z"/>
<path d="M1610 1819 c-99 -12 -220 -43 -286 -73 -68 -31 -149 -107 -180 -168
-31 -62 -33 -153 -4 -214 83 -171 417 -288 775 -271 184 9 305 55 405 156 172
172 137 378 -81 481 -33 16 -66 36 -73 45 -22 31 -412 62 -556 44z m440 -146
c191 -66 270 -162 208 -253 -61 -89 -189 -132 -398 -133 -126 0 -295 20 -356
43 -31 12 -74 72 -80 112 -8 48 12 113 47 153 96 109 379 147 579 78z m-540
-15 c-42 -26 -61 -45 -82 -87 -32 -61 -37 -134 -13 -181 18 -34 15 -36 -25
-15 -57 30 -85 113 -60 179 10 28 86 80 165 113 72 31 77 28 15 -9z m-210
-183 c0 -57 57 -123 127 -146 21 -6 70 -29 108 -50 97 -52 199 -79 330 -87 74
-4 100 -8 80 -13 -121 -27 -401 13 -525 76 -119 60 -167 135 -144 223 8 30 24
28 24 -3z m961 -123 c-30 -59 -70 -87 -163 -113 -142 -41 -351 -29 -486 28
-19 8 -33 16 -31 17 2 2 45 -3 94 -10 241 -34 477 3 565 90 19 19 36 33 38 31
2 -2 -6 -21 -17 -43z"/>
<path d="M942 1149 c-51 -9 -205 -63 -272 -97 -87 -43 -140 -118 -140 -197 0
-61 18 -94 82 -148 105 -89 226 -128 403 -130 164 -2 269 29 349 103 58 54 90
128 83 192 -24 200 -243 320 -505 277z m287 -148 c65 -34 91 -66 91 -114 0
-45 -30 -101 -63 -118 -22 -12 -22 -12 0 13 61 66 46 143 -37 185 -56 29 -164
52 -250 54 -61 2 -62 2 -20 8 84 11 231 -4 279 -28z m-104 -25 c181 -48 195
-153 31 -236 -63 -31 -79 -35 -171 -38 -134 -5 -206 10 -240 49 -30 37 -32 76
-6 127 45 87 129 126 256 117 44 -3 103 -11 130 -19z m-389 -57 c-32 -38 -40
-67 -33 -125 5 -48 5 -49 -24 -34 -13 8 -19 21 -19 46 0 42 12 68 53 112 39
41 57 42 23 1z m-56 -3 c0 -2 -8 -10 -17 -17 -16 -13 -17 -12 -4 4 13 16 21
21 21 13z"/>
<path d="M295 459 c-150 -22 -256 -125 -231 -224 16 -63 103 -126 221 -160 78
-23 204 -17 260 12 121 64 159 196 81 290 -12 15 -25 36 -29 46 -4 9 -17 21
-29 26 -37 13 -208 20 -273 10z m173 -106 c71 -45 41 -144 -58 -188 -36 -16
-47 -17 -87 -7 -55 15 -99 45 -108 73 -5 13 2 31 20 55 34 44 63 63 122 79 51
14 74 11 111 -12z m86 -29 c31 -32 33 -58 6 -98 -18 -28 -84 -76 -104 -76 -5
0 10 20 33 45 35 38 41 51 41 88 0 24 -5 48 -12 55 -8 8 -8 12 -1 12 5 0 22
-12 37 -26z"/>
</g>
</svg>
